<?xml version="1.0" encoding="iso-8859-1"?>
<!-- Uploaded to: SVG Repo, www.svgrepo.com, Generator: SVG Repo Mixer Tools -->
<svg version="1.1" id="Layer_1" xmlns="http://www.w3.org/2000/svg" xmlns:xlink="http://www.w3.org/1999/xlink" 
	 viewBox="0 0 493.28 493.28" xml:space="preserve">
<g>
	<polygon style="fill:#005ECE;" points="246.64,246.64 327.082,327.082 347.89,327.082 347.89,285.466 387.89,285.466 
		387.89,327.082 429.506,327.082 429.506,367.082 387.89,367.082 387.89,387.89 493.28,493.28 493.28,0 	"/>
	<polygon style="fill:#003F8A;" points="387.89,408.698 347.89,408.698 347.89,367.082 306.274,367.082 306.274,327.082 
		327.082,327.082 246.64,246.64 0,493.28 493.28,493.28 387.89,387.89 	"/>
	<polygon style="fill:#FFFFFF;" points="306.274,367.082 347.89,367.082 347.89,408.698 387.89,408.698 387.89,367.082 
		429.506,367.082 429.506,327.082 387.89,327.082 387.89,285.466 347.89,285.466 347.89,327.082 306.274,327.082 	"/>
	<rect x="63.774" y="84.582" style="fill:#2488FF;" width="123.231" height="40"/>
</g>
</svg>