<?xml version="1.0" encoding="iso-8859-1"?>
<!-- Uploaded to: SVG Repo, www.svgrepo.com, Generator: SVG Repo Mixer Tools -->
<svg version="1.1" id="Layer_1" xmlns="http://www.w3.org/2000/svg" xmlns:xlink="http://www.w3.org/1999/xlink" 
	 viewBox="0 0 511.982 511.982" xml:space="preserve">
<path style="fill:#ED5564;" d="M393.144,42.982C377.895,14.46,359.646,0,338.833,0c-23.905,0-48.748,19.562-73.857,58.131
	c-3.219,4.945-6.219,9.875-8.999,14.64c-2.766-4.765-5.766-9.694-8.984-14.64C221.9,19.562,197.057,0,173.136,0
	c-20.796,0-39.061,14.46-54.295,42.982c-11.406,21.336-7.297,36.663-1.844,45.765c9.828,16.39,31.796,27.429,67.17,33.749
	c27.14,4.852,55.873,5.57,70.592,5.57c0.422,0,0.828,0,1.234,0c0.391,0,0.797,0,1.218,0c0,0,0,0,0.016,0
	c14.703,0,43.453-0.719,70.576-5.57c35.375-6.32,57.343-17.359,67.186-33.749C400.426,79.645,404.551,64.318,393.144,42.982z"/>
<rect x="21.328" y="158.722" style="fill:#FFCE54;" width="469.31" height="353.26"/>
<polygon style="fill:#F6BB42;" points="21.328,234.72 490.642,277.397 490.642,213.321 21.328,213.321 "/>
<rect x="0.001" y="96.012" style="fill:#FFCE54;" width="511.98" height="117.31"/>
<g>
	<path style="fill:#ED5564;" d="M202.65,362.66c29.453,0,53.343-23.873,53.343-53.326c0-29.468-23.89-53.334-53.343-53.334
		c-29.452,0-53.326,23.866-53.326,53.334C149.324,338.787,173.198,362.66,202.65,362.66z M202.65,277.335
		c17.641,0,32,14.344,32,31.999c0,17.641-14.359,31.999-32,31.999c-17.64,0-31.999-14.358-31.999-31.999
		C170.651,291.679,185.011,277.335,202.65,277.335z"/>
	<path style="fill:#ED5564;" d="M309.335,362.66c-29.468,0-53.342,23.875-53.342,53.327c0,29.468,23.874,53.343,53.342,53.343
		c29.437,0,53.312-23.875,53.312-53.343C362.646,386.535,338.771,362.66,309.335,362.66z M309.335,447.986
		c-17.655,0-31.999-14.344-31.999-31.999c0-17.64,14.344-31.999,31.999-31.999c17.624,0,31.999,14.359,31.999,31.999
		C341.334,433.642,326.959,447.986,309.335,447.986z"/>
	<path style="fill:#ED5564;" d="M359.521,274.21c1.938-1.938,3.125-4.601,3.125-7.546c0-5.891-4.781-10.664-10.656-10.664
		c-2.938,0-5.625,1.195-7.531,3.125l-192.01,191.986c-1.938,1.938-3.125,4.594-3.125,7.547c0,5.891,4.781,10.672,10.672,10.672
		c2.938,0,5.609-1.203,7.531-3.125L359.521,274.21z"/>
</g>
</svg>