<?xml version="1.0" encoding="iso-8859-1"?>
<!-- Uploaded to: SVG Repo, www.svgrepo.com, Generator: SVG Repo Mixer Tools -->
<svg height="800px" width="800px" version="1.1" id="Layer_1" xmlns="http://www.w3.org/2000/svg" xmlns:xlink="http://www.w3.org/1999/xlink" 
	 viewBox="0 0 512 512" xml:space="preserve">
<g>
	<g>
		<path style="fill:#C1991A;" d="M17.655,220.69c-4.873,0-8.828-3.946-8.828-8.828v-17.655c0-4.882,3.955-8.828,8.828-8.828
			s8.828,3.946,8.828,8.828v17.655C26.483,216.744,22.528,220.69,17.655,220.69"/>
		<path style="fill:#C1991A;" d="M61.793,220.69c-4.873,0-8.828-3.946-8.828-8.828v-17.655c0-4.882,3.955-8.828,8.828-8.828
			s8.828,3.946,8.828,8.828v17.655C70.621,216.744,66.666,220.69,61.793,220.69"/>
		<path style="fill:#C1991A;" d="M17.655,326.621c-4.873,0-8.828-3.946-8.828-8.828v-17.655c0-4.882,3.955-8.828,8.828-8.828
			s8.828,3.946,8.828,8.828v17.655C26.483,322.675,22.528,326.621,17.655,326.621"/>
		<path style="fill:#C1991A;" d="M61.793,326.621c-4.873,0-8.828-3.946-8.828-8.828v-17.655c0-4.882,3.955-8.828,8.828-8.828
			s8.828,3.946,8.828,8.828v17.655C70.621,322.675,66.666,326.621,61.793,326.621"/>
		<path style="fill:#C1991A;" d="M450.207,220.69c-4.873,0-8.828-3.946-8.828-8.828v-17.655c0-4.882,3.955-8.828,8.828-8.828
			c4.873,0,8.828,3.946,8.828,8.828v17.655C459.034,216.744,455.08,220.69,450.207,220.69"/>
		<path style="fill:#C1991A;" d="M494.345,220.69c-4.873,0-8.828-3.946-8.828-8.828v-17.655c0-4.882,3.955-8.828,8.828-8.828
			c4.873,0,8.828,3.946,8.828,8.828v17.655C503.172,216.744,499.218,220.69,494.345,220.69"/>
		<path style="fill:#C1991A;" d="M450.207,326.621c-4.873,0-8.828-3.946-8.828-8.828v-17.655c0-4.882,3.955-8.828,8.828-8.828
			c4.873,0,8.828,3.946,8.828,8.828v17.655C459.034,322.675,455.08,326.621,450.207,326.621"/>
		<path style="fill:#C1991A;" d="M494.345,326.621c-4.873,0-8.828-3.946-8.828-8.828v-17.655c0-4.882,3.955-8.828,8.828-8.828
			c4.873,0,8.828,3.946,8.828,8.828v17.655C503.172,322.675,499.218,326.621,494.345,326.621"/>
	</g>
	<g>
		<polygon style="fill:#F0C419;" points="0,300.138 88.276,300.138 88.276,211.862 0,211.862 		"/>
		<polygon style="fill:#F0C419;" points="423.724,300.138 512,300.138 512,211.862 423.724,211.862 		"/>
	</g>
	<path style="fill:#ECF0F1;" d="M423.724,256c0,92.628-75.087,167.724-167.724,167.724S88.276,348.628,88.276,256
		S163.363,88.276,256,88.276S423.724,163.372,423.724,256"/>
	<path style="fill:#E64C3C;" d="M229.517,335.448c0,14.627-11.855,26.483-26.483,26.483s-26.483-11.855-26.483-26.483
		s11.855-26.483,26.483-26.483S229.517,320.821,229.517,335.448"/>
	<path style="fill:#4482C3;" d="M335.448,335.448c0,14.627-11.855,26.483-26.483,26.483s-26.483-11.855-26.483-26.483
		s11.855-26.483,26.483-26.483S335.448,320.821,335.448,335.448"/>
	<polygon style="fill:#BDC3C7;" points="158.897,256 353.103,256 353.103,176.552 158.897,176.552 	"/>
	<path style="fill:#E64C3C;" d="M203.034,229.517c-4.873,0-8.828-3.946-8.828-8.828v-8.828c0-4.882,3.955-8.828,8.828-8.828
		c4.873,0,8.828,3.946,8.828,8.828v8.828C211.862,225.571,207.907,229.517,203.034,229.517"/>
	<g>
		<path style="fill:#4482C3;" d="M273.655,229.517c-4.873,0-8.828-3.946-8.828-8.828v-8.828c0-4.882,3.955-8.828,8.828-8.828
			c4.873,0,8.828,3.946,8.828,8.828v8.828C282.483,225.571,278.528,229.517,273.655,229.517"/>
		<path style="fill:#4482C3;" d="M308.966,229.517c-4.873,0-8.828-3.946-8.828-8.828v-8.828c0-4.882,3.955-8.828,8.828-8.828
			s8.828,3.946,8.828,8.828v8.828C317.793,225.571,313.838,229.517,308.966,229.517"/>
	</g>
	<path style="fill:#E64C3C;" d="M238.345,229.517c-4.873,0-8.828-3.946-8.828-8.828v-8.828c0-4.882,3.955-8.828,8.828-8.828
		c4.873,0,8.828,3.946,8.828,8.828v8.828C247.172,225.571,243.218,229.517,238.345,229.517"/>
</g>
</svg>