<?xml version="1.0" encoding="iso-8859-1"?>
<!-- Uploaded to: SVG Repo, www.svgrepo.com, Generator: SVG Repo Mixer Tools -->
<svg height="800px" width="800px" version="1.1" id="Capa_1" xmlns="http://www.w3.org/2000/svg" xmlns:xlink="http://www.w3.org/1999/xlink" 
	 viewBox="0 0 512 512" xml:space="preserve">
<g>
	<g>
		<g>
			<path style="fill:#D7DBE0;" d="M256,512c-62.805,0-112-28.109-112-64s49.195-64,112-64s112,28.109,112,64S318.805,512,256,512z
				 M256,400c-52.039,0-96,21.984-96,48s43.961,48,96,48s96-21.984,96-48S308.039,400,256,400z"/>
		</g>
	</g>
	<g>
		<g>
			<path style="fill:#B8BAC0;" d="M256,480c-31.805,0-64-10.992-64-32s32.195-32,64-32s64,10.992,64,32S287.805,480,256,480z
				 M256,432c-29.773,0-48,10.359-48,16s18.227,16,48,16s48-10.359,48-16S285.773,432,256,432z"/>
		</g>
	</g>
	<g>
		<path style="fill:#FF4F19;" d="M256,0C163.367,0,88,75.367,88,168c0,118.344,115.789,240.563,151.281,275.203
			c4.688,4.578,10.703,6.859,16.719,6.859s12.031-2.289,16.719-6.859C308.211,408.563,424,286.344,424,168
			C424,75.367,348.633,0,256,0z M256,64c57.346,0,104,46.654,104,104s-46.654,104-104,104s-104-46.654-104-104S198.654,64,256,64z"
			/>
	</g>
	<g>
		<g>
			<g>
				<path style="fill:#E7001E;" d="M208,228c-3.07,0-6.141-1.172-8.484-3.516c-4.688-4.688-4.688-12.281,0-16.969l96-96
					c4.688-4.688,12.281-4.688,16.969,0s4.688,12.281,0,16.969l-96,96C214.141,226.828,211.07,228,208,228z"/>
			</g>
		</g>
		<g>
			<g>
				<path style="fill:#E7001E;" d="M220,164c-17.648,0-32-14.352-32-32s14.352-32,32-32s32,14.352,32,32S237.648,164,220,164z
					 M220,124c-4.414,0-8,3.586-8,8s3.586,8,8,8s8-3.586,8-8S224.414,124,220,124z"/>
			</g>
		</g>
		<g>
			<g>
				<path style="fill:#E7001E;" d="M292,236c-17.648,0-32-14.352-32-32s14.352-32,32-32s32,14.352,32,32S309.648,236,292,236z
					 M292,196c-4.414,0-8,3.586-8,8s3.586,8,8,8s8-3.586,8-8S296.414,196,292,196z"/>
			</g>
		</g>
	</g>
	<g>
		<path style="fill:#E7001E;" d="M152,168c0-57.346,46.654-104,104-104V0C163.367,0,88,75.367,88,168
			c0,118.344,115.789,240.563,151.281,275.203c4.688,4.578,10.703,6.859,16.719,6.859V272C198.654,272,152,225.346,152,168z"/>
	</g>
</g>
</svg>