<?xml version="1.0" encoding="iso-8859-1"?>
<!-- Uploaded to: SVG Repo, www.svgrepo.com, Generator: SVG Repo Mixer Tools -->
<svg version="1.1" id="Layer_1" xmlns="http://www.w3.org/2000/svg" xmlns:xlink="http://www.w3.org/1999/xlink" 
	 viewBox="0 0 512 512" xml:space="preserve">
<path style="fill:#ED7149;" d="M260.003,504.198L260.003,504.198c-42.007,0-76.06-34.054-76.06-76.06V83.864
	c0-42.007,34.054-76.06,76.06-76.06l0,0c42.007,0,76.06,34.054,76.06,76.06v344.274C336.063,470.144,302.01,504.198,260.003,504.198
	z"/>
<g>
	<rect x="183.938" y="79.865" style="fill:#F9B233;" width="144.114" height="40.032"/>
	<rect x="183.938" y="392.104" style="fill:#F9B233;" width="144.114" height="40.032"/>
</g>
<rect x="215.969" y="159.927" style="fill:#FAC15C;" width="80.063" height="192.156"/>
<path style="fill:#F9B233;" d="M223.771,344.275h64.459V167.726h-64.459V344.275z"/>
<g>
	<rect x="207.958" y="183.938" style="fill:#FFFFFF;" width="96.073" height="40.032"/>
	<rect x="207.958" y="288.031" style="fill:#FFFFFF;" width="96.073" height="40.032"/>
</g>
<path style="fill:#1D1D1B;" d="M299.831,282.858V229.13c9.451-4.449,16.012-14.062,16.012-25.182
	c0-11.119-6.561-20.731-16.012-25.181v-26.649h-87.663v26.649c-9.452,4.449-16.014,14.062-16.014,25.182s6.561,20.733,16.014,25.183
	v53.727c-9.452,4.449-16.014,14.062-16.014,25.182c0,11.12,6.561,20.732,16.014,25.182v26.662h87.663v-26.663
	c9.451-4.449,16.012-14.062,16.012-25.181C315.843,296.919,309.283,287.306,299.831,282.858z M284.227,231.767v48.453h-56.454
	v-48.453H284.227z M284.227,167.723v8.407h-56.454v-8.407H284.227z M223.974,191.735h64.051c6.735,0,12.213,5.479,12.213,12.213
	c0,6.736-5.479,12.214-12.213,12.214h-64.051c-6.735,0-12.213-5.479-12.213-12.214C211.761,197.213,217.239,191.735,223.974,191.735
	z M227.773,344.277v-8.421h56.454v8.421H227.773z M288.025,320.252h-64.051c-6.735,0-12.213-5.479-12.213-12.213
	c0-6.734,5.479-12.213,12.213-12.213h64.051c6.735,0,12.213,5.479,12.213,12.213C300.238,314.772,294.76,320.252,288.025,320.252z"
	/>
<g>
	<rect x="235.984" y="248.198" style="fill:#FFFFFF;" width="16.012" height="15.605"/>
	<rect x="260.005" y="248.198" style="fill:#FFFFFF;" width="16.014" height="15.605"/>
</g>
<path style="fill:#1D1D1B;" d="M256,0c-46.242,0-83.863,37.621-83.863,83.863v344.275C172.137,474.379,209.758,512,256,512
	s83.863-37.621,83.863-83.863V83.863C339.863,37.621,302.242,0,256,0z M256,15.605c33.611,0,61.605,24.424,67.216,56.454H188.784
	C194.395,40.029,222.39,15.605,256,15.605z M187.742,424.338v-24.427h136.517v24.427H187.742z M187.742,384.306V127.694h136.517
	v256.612H187.742z M187.742,112.089V87.663h136.517v24.427H187.742z M256,496.395c-33.61,0-61.605-24.424-67.216-56.454h134.431
	C317.605,471.971,289.611,496.395,256,496.395z"/>
</svg>