<?xml version="1.0" encoding="iso-8859-1"?>
<!-- Uploaded to: SVG Repo, www.svgrepo.com, Generator: SVG Repo Mixer Tools -->
<!DOCTYPE svg PUBLIC "-//W3C//DTD SVG 1.1//EN" "http://www.w3.org/Graphics/SVG/1.1/DTD/svg11.dtd">
<svg height="800px" width="800px" version="1.1" id="Capa_1" xmlns="http://www.w3.org/2000/svg" xmlns:xlink="http://www.w3.org/1999/xlink" 
	 viewBox="0 0 297.5 297.5" xml:space="preserve">
<g>
	<g id="XMLID_28_">
		<g>
			<path style="fill:#F5B543;" d="M255.33,74.352c0,0.011,0,0.021,0,0.03c0,7.62-6.2,13.82-13.82,13.82
				c-7.62,0-13.82-6.2-13.82-13.82c0-5.17-4.199-9.37-9.369-9.37c-5.181,0-9.37,4.2-9.37,9.37c0,7.62-6.2,13.82-13.82,13.82
				c-7.62,0-13.82-6.2-13.82-13.82c0-5.17-4.199-9.37-9.37-9.37c-5.17,0-9.369,4.2-9.369,9.37c0,7.62-6.2,13.82-13.82,13.82
				c-7.62,0-13.82-6.2-13.82-13.82c0-5.17-4.189-9.37-9.37-9.37c-5.17,0-9.37,4.2-9.37,9.37c0,7.62-6.189,13.82-13.809,13.82
				c-7.56,0-13.75-6.13-13.82-13.681c0-0.109,0-0.21-0.01-0.31c-0.09-5.11-4.26-9.2-9.36-9.2c-0.029,0-0.059,0-0.09,0
				c-5.14,0.05-9.279,4.23-9.279,9.37v0.13c-0.07,7.55-6.261,13.69-13.82,13.69c-7.62,0-13.82-6.2-13.82-13.82v-15.99l106.57-28.42
				l106.58,28.42C255.33,65.022,255.33,73.903,255.33,74.352z"/>
			<path d="M287.88,206.022c5.18,0,9.37,4.191,9.37,9.37c0,5.17-4.191,9.37-9.37,9.37h-23.29v43.101h6.09
				c5.17,0,9.36,4.189,9.36,9.359c0,5.181-4.19,9.37-9.36,9.37h-30.92c-5.18,0-9.37-4.189-9.37-9.37c0-5.17,4.19-9.359,9.37-9.359
				h6.09v-43.101h-23.3c-5.17,0-9.37-4.2-9.37-9.37c0-5.18,4.2-9.37,9.37-9.37H287.88z"/>
			<path d="M274.06,51.203l-0.029,23.18h0.029c0,17.96-14.6,32.561-32.55,32.561c-9.07,0-17.28-3.721-23.189-9.73
				c-5.91,6.01-14.12,9.73-23.19,9.73c-9.07,0-17.28-3.721-23.191-9.73c-3.789,3.85-8.519,6.75-13.819,8.35v69.54h75.66
				c5.17,0,9.37,4.19,9.37,9.37c0,5.17-4.2,9.37-9.37,9.37h-27.04L162,238.583l32.03,32.02c3.649,3.66,3.649,9.591,0,13.25
				c-1.83,1.83-4.23,2.74-6.63,2.74c-2.4,0-4.79-0.91-6.62-2.74l-32.03-32.02l-32.021,32.02c-1.829,1.83-4.229,2.74-6.619,2.74
				c-2.4,0-4.801-0.91-6.631-2.74c-3.659-3.659-3.659-9.59,0-13.25l32.021-32.02l-44.73-44.74h-27.04c-5.18,0-9.369-4.2-9.369-9.37
				c0-5.18,4.189-9.37,9.369-9.37h75.65v-69.54c-5.29-1.6-10.03-4.5-13.82-8.35c-5.909,6.01-14.12,9.73-23.18,9.73
				c-9.06,0-17.28-3.74-23.191-9.75c-5.92,6.01-14.14,9.75-23.189,9.75c-17.95,0-32.561-14.601-32.561-32.561v-23.18
				c0-4.25,2.86-7.96,6.961-9.061l115.939-30.92c1.58-0.42,3.25-0.42,4.83,0l115.94,30.92
				C271.21,43.243,274.06,46.953,274.06,51.203z M255.33,74.383c0-0.01,0-0.02,0-0.03c0-0.449,0-9.33,0-15.96l-106.58-28.42
				L42.18,58.392v15.99c0,7.62,6.2,13.82,13.82,13.82c7.559,0,13.75-6.141,13.82-13.69v-0.13c0-5.14,4.14-9.32,9.279-9.37
				c0.03,0,0.06,0,0.09,0c5.101,0,9.271,4.09,9.36,9.2c0.01,0.1,0.01,0.2,0.01,0.31c0.07,7.551,6.261,13.681,13.82,13.681
				c7.62,0,13.809-6.2,13.809-13.82c0-5.17,4.2-9.37,9.37-9.37c5.181,0,9.37,4.2,9.37,9.37c0,7.62,6.2,13.82,13.82,13.82
				c7.62,0,13.82-6.2,13.82-13.82c0-5.17,4.199-9.37,9.369-9.37c5.171,0,9.37,4.2,9.37,9.37c0,7.62,6.2,13.82,13.82,13.82
				c7.62,0,13.82-6.2,13.82-13.82c0-5.17,4.189-9.37,9.37-9.37c5.17,0,9.369,4.2,9.369,9.37c0,7.62,6.2,13.82,13.82,13.82
				C249.13,88.203,255.33,82.003,255.33,74.383z M148.75,225.333l31.49-31.49H117.27L148.75,225.333z"/>
			<path d="M74.96,206.022c5.17,0,9.37,4.191,9.37,9.37c0,5.17-4.2,9.37-9.37,9.37h-23.3v43.101h6.09c5.17,0,9.37,4.189,9.37,9.359
				c0,5.181-4.2,9.37-9.37,9.37H26.83c-5.17,0-9.37-4.189-9.37-9.37c0-5.17,4.2-9.359,9.37-9.359h6.09v-43.101H9.62
				c-5.17,0-9.37-4.2-9.37-9.37c0-5.18,4.2-9.37,9.37-9.37H74.96z"/>
		</g>
		<g>
		</g>
	</g>
</g>
</svg>