<?xml version="1.0" encoding="iso-8859-1"?>
<!-- Uploaded to: SVG Repo, www.svgrepo.com, Generator: SVG Repo Mixer Tools -->
<!DOCTYPE svg PUBLIC "-//W3C//DTD SVG 1.1//EN" "http://www.w3.org/Graphics/SVG/1.1/DTD/svg11.dtd">
<svg height="800px" width="800px" version="1.1" id="Capa_1" xmlns="http://www.w3.org/2000/svg" xmlns:xlink="http://www.w3.org/1999/xlink" 
	 viewBox="0 0 218.492 218.492" xml:space="preserve">
<g>
	<path style="fill-rule:evenodd;clip-rule:evenodd;fill:#E5A775;" d="M90.583,129.271l-1.793-24.122
		c-1.549-6.392-9.829-5.628-8.618,2.296l2.188,22.984L90.583,129.271z"/>
	<path style="fill-rule:evenodd;clip-rule:evenodd;fill:#E5A775;" d="M127.907,129.271l1.794-24.122
		c1.548-6.392,9.915-6.249,8.704,1.675l-2.275,23.606L127.907,129.271z"/>
	<path style="fill-rule:evenodd;clip-rule:evenodd;fill:#4E6078;" d="M93.464,71.582l-5.007,34.056
		c-0.611,4.153-8.887,1.878-8.806-1.962l0.653-31.072C80.515,62.605,94.844,62.194,93.464,71.582z"/>
	<path style="fill-rule:evenodd;clip-rule:evenodd;fill:#4E6078;" d="M125.027,71.582l5.007,34.056
		c0.611,4.153,8.887,1.878,8.807-1.962l-0.654-31.072C137.977,62.605,123.646,62.194,125.027,71.582z"/>
	<polygon style="fill-rule:evenodd;clip-rule:evenodd;fill:#E5A775;" points="129.918,64.797 122.029,123.797 109.041,123.797 
		95.583,123.797 88.727,64.797 	"/>
	<path style="fill-rule:evenodd;clip-rule:evenodd;fill:#E5A775;" d="M96.439,204.377c-2.929,4.24-6.83,6.68-7.805,9.737
		c-0.551,1.73-0.142,3.917,1.616,4.134c7.562,0.936,9.758-2.779,12.451-3.533c4.654-1.307,4.774-3.982,2.891-10.338
		C103.71,198.021,98.796,200.41,96.439,204.377z"/>
	<path style="fill-rule:evenodd;clip-rule:evenodd;fill:#E5A775;" d="M92.024,123.797h34.599l-4.415,80.58h-9.154l-1.862-61.287
		c-0.147-4.859-3.588-4.889-3.736,0l-1.862,61.287h-9.153L92.024,123.797z"/>
	<path style="fill-rule:evenodd;clip-rule:evenodd;fill:#E5A775;" d="M128.604,128.547h-0.001c-0.333-0.226-0.751,0.227-0.78,0.621
		l-0.437,5.84c-0.029,0.395,0.35,0.591,0.684,0.816h0.001c0.334,0.225,0.751-0.227,0.78-0.622l0.436-5.84
		C129.318,128.967,129.008,128.6,128.604,128.547z"/>
	<path style="fill-rule:evenodd;clip-rule:evenodd;fill:#E5A775;" d="M127.808,131.043l0.191-2.512l8.297,1.194l-0.19,2.511
		C135.302,139.799,126.866,140.225,127.808,131.043z"/>
	<path style="fill-rule:evenodd;clip-rule:evenodd;fill:#E5A775;" d="M89.887,128.547L89.887,128.547
		c0.334-0.226,0.751,0.227,0.781,0.621l0.436,5.84c0.03,0.395-0.35,0.591-0.684,0.816l0,0c-0.334,0.225-0.751-0.227-0.781-0.622
		l-0.436-5.84C89.173,128.967,89.483,128.6,89.887,128.547z"/>
	<path style="fill-rule:evenodd;clip-rule:evenodd;fill:#E5A775;" d="M90.683,131.043l-0.19-2.512l-8.297,1.194l0.19,2.511
		C83.189,139.799,91.625,140.225,90.683,131.043z"/>
	<path style="fill-rule:evenodd;clip-rule:evenodd;fill:#4E6078;" d="M138.072,71.291l0.242,7.413l-9.352,3.216l-2.34,41.877H92.024
		L89.719,82.54l-9.551-3.419l0.137-6.518C97.224,77.754,115.065,81.72,138.072,71.291z"/>
	<polygon style="fill-rule:evenodd;clip-rule:evenodd;fill:#8599B4;" points="91.419,112.975 93.562,162.395 125.51,162.395 
		127.227,112.975 	"/>
	<path style="fill-rule:evenodd;clip-rule:evenodd;fill:#E5A775;" d="M122.227,204.377c2.93,4.24,6.83,6.68,7.805,9.737
		c0.551,1.73,0.142,3.917-1.615,4.134c-7.563,0.936-9.759-2.779-12.451-3.533c-4.655-1.307-4.774-3.982-2.892-10.338
		C114.957,198.021,119.871,200.41,122.227,204.377z"/>
	<path style="fill-rule:evenodd;clip-rule:evenodd;fill:#E2687F;" d="M91.091,210.445c-1.138,1.232-2.051,2.396-2.456,3.669
		c-1.424,4.47,2.557,4.589,5.811,4.169c4.335-0.561,6.144-2.977,8.257-3.568c4.181-1.174,4.702-3.453,3.399-8.512
		c-0.178,4.412-4.307,5.613-8.891,7.787C92.628,216.164,88.933,214.012,91.091,210.445z"/>
	<path style="fill-rule:evenodd;clip-rule:evenodd;fill:#E2687F;" d="M127.579,210.445c1.138,1.232,2.05,2.396,2.455,3.669
		c1.631,5.116-4.18,4.731-7.464,3.841c-3.186-0.862-4.781-2.73-6.603-3.24c-4.182-1.174-4.703-3.453-3.4-8.512
		c0.179,4.412,4.307,5.613,8.891,7.787C126.041,216.164,129.736,214.012,127.579,210.445z"/>
	<path style="fill-rule:evenodd;clip-rule:evenodd;fill:#4E6078;" d="M89.516,114.902l-1.352-13.83
		c-1.55-6.392-9.598-3.926-8.387,3.998l0.827,10.494L89.516,114.902L89.516,114.902z"/>
	<path style="fill-rule:evenodd;clip-rule:evenodd;fill:#4E6078;" d="M128.939,114.902l1.195-13.359
		c1.549-6.393,9.651-2.643,8.44,5.281l-0.724,8.74L128.939,114.902L128.939,114.902z"/>
	<polygon style="fill-rule:evenodd;clip-rule:evenodd;fill:#E2687F;" points="88.727,64.797 90.307,93.056 91.419,112.975 
		127.227,112.975 128.297,93.823 129.918,64.797 119.276,64.797 109.241,97.544 99.378,64.797 	"/>
	<path style="fill-rule:evenodd;clip-rule:evenodd;fill:#4D1B02;" d="M104.356,2.621c0.646,0,1.262,0.131,1.827,0.369
		c0.794-1.768,2.495-2.99,4.464-2.99c2.53,0,4.616,2.016,4.908,4.614c0.825-0.653,1.849-1.04,2.957-1.04
		c2.686,0,4.87,2.27,4.941,5.099c0.675-0.366,1.439-0.572,2.249-0.572c2.729,0,4.943,2.347,4.943,5.241
		c0,0.799-0.17,1.557-0.472,2.234c0.299-0.06,0.607-0.092,0.921-0.092c2.73,0,4.943,2.347,4.943,5.241
		c0,1.144-0.346,2.202-0.933,3.063c0.722,0.91,1.157,2.086,1.157,3.369c0,1.561-0.645,2.963-1.667,3.923
		c0.892,0.948,1.442,2.255,1.442,3.699c0,2.187-1.263,4.059-3.057,4.845c0.783,0.928,1.259,2.151,1.259,3.493
		c0,2.381-1.498,4.392-3.55,5.028c0.117,0.447,0.18,0.918,0.18,1.404c0,2.894-2.29,6.085-4.943,5.24
		c0.197,2.248-3.321,6.322-6.778,3.965c-1.85,6.035-14.573,5.019-17.038,0.014c-2.627,2.885-7.162,0.561-7.31-2.789
		c-2.894,0.07-5.05-2.436-5.05-5.238c0-0.434,0.049-0.852,0.142-1.253c-2.371-0.386-4.187-2.558-4.187-5.18
		c0-0.565,0.085-1.111,0.242-1.622c-2.085-0.616-3.612-2.643-3.612-5.049c0-0.646,0.11-1.265,0.312-1.837
		c-1.148-0.96-1.886-2.448-1.886-4.118c0-1.565,0.647-2.971,1.675-3.931c-0.763-0.923-1.226-2.131-1.226-3.454
		c0-2.059,1.121-3.84,2.751-4.697c-0.18-0.542-0.276-1.124-0.276-1.73c0-2.893,2.213-5.24,4.943-5.24
		c0.158,0,0.314,0.008,0.469,0.023c0.559-1.801,2.015-3.172,3.807-3.517c-0.006-0.106-0.009-0.214-0.009-0.323
		c0-2.895,2.213-5.24,4.943-5.24c1.02,0,1.967,0.327,2.754,0.889C101.502,3.336,102.851,2.621,104.356,2.621z"/>
	<path style="fill-rule:evenodd;clip-rule:evenodd;fill:#E5A775;" d="M117.311,44.631v23.816c-4.394,5.775-11.583,5.576-15.977,0
		V44.631C101.335,34.063,117.311,34.063,117.311,44.631z"/>
	<path style="fill-rule:evenodd;clip-rule:evenodd;fill:#B78053;" d="M117.311,44.631v13.103c-3.022,2.365-5.937,3.689-7.988,3.689
		c-2.052,0-4.966-1.324-7.988-3.689V44.631C101.335,34.063,117.311,34.063,117.311,44.631z"/>
	<path style="fill-rule:evenodd;clip-rule:evenodd;fill:#E5A775;" d="M109.323,58.17c-5.201,0-16.189-8.178-19.587-19.891
		c-3.43-11.826,3.03-28.789,19.587-28.789c16.557,0,23.017,16.963,19.586,28.789C125.513,49.992,114.524,58.17,109.323,58.17z"/>
	<path style="fill-rule:evenodd;clip-rule:evenodd;fill:#FF698E;" d="M101.282,46.175c3.508-2.565,7.169-1.047,8.394-1.047
		c1.223,0,4.683-1.519,8.19,1.047C116.12,53.23,103.924,53.408,101.282,46.175z"/>
	<path style="fill-rule:evenodd;clip-rule:evenodd;fill:#A21F40;" d="M101.463,46.138c3.256-1.147,6.135,1.101,8.184,1.101
		c2.048,0,4.934-3.02,8.19-0.985C114.021,50.143,105.305,49.932,101.463,46.138z"/>
	<path style="fill-rule:evenodd;clip-rule:evenodd;fill:#FFFFFF;" d="M101.463,46.137c3.508-1.445,6.089-0.396,8.138-0.396
		c2.048,0,4.938-1.049,8.446,0.396C114.23,48.316,105.305,48.244,101.463,46.137z"/>
	<path style="fill-rule:evenodd;clip-rule:evenodd;fill:#FF698E;" d="M101.316,46.15c3.491-2.531,6.49-0.775,8.535-0.775
		c2.044,0,4.507-1.766,8.015,0.801c-0.013,0.035-0.027,0.07-0.041,0.105C113.353,46.201,106.034,46.156,101.316,46.15z"/>
	
		<ellipse transform="matrix(-0.3946 -0.9188 0.9188 -0.3946 88.1679 135.9253)" style="fill-rule:evenodd;clip-rule:evenodd;fill:#E5A775;" cx="88.86" cy="38.918" rx="5.701" ry="3.298"/>
	
		<ellipse transform="matrix(0.3946 -0.9189 0.9189 0.3946 43.2664 143.5018)" style="fill-rule:evenodd;clip-rule:evenodd;fill:#E5A775;" cx="130.529" cy="38.918" rx="5.701" ry="3.296"/>
	<path style="fill-rule:evenodd;clip-rule:evenodd;fill:#4D1B02;" d="M127.798,38.155c15.305-19.954-14.161-31.479-21.905-31.479
		c-6.666,0-27.256,18.626-14.921,32.837c-0.114-2.478,0.096-6.41,3.799-7.781c2.79,0.014,6.276-0.18,6.336-2.9
		c0.588,0.268,1.236,0.416,1.917,0.416c2.318,0,4.256-1.725,4.736-4.029c0.083,0.004,0.167,0.006,0.251,0.006
		c1.753,0,3.288-0.984,4.141-2.461c0.788-0.066,1.522-0.332,2.158-0.75c0.711,1.347,1.976,2.32,3.469,2.572
		c0.477,2.311,2.841,6.158,7.14,4.181C127.046,31.946,127.984,34.98,127.798,38.155z"/>
	<g>
		<circle style="fill-rule:evenodd;clip-rule:evenodd;fill:#FFFFFF;" cx="99.181" cy="66.469" r="1.525"/>
		<circle style="fill-rule:evenodd;clip-rule:evenodd;fill:#FFFFFF;" cx="101.726" cy="68.516" r="1.525"/>
		<circle style="fill-rule:evenodd;clip-rule:evenodd;fill:#FFFFFF;" cx="104.527" cy="69.879" r="1.525"/>
		<circle style="fill-rule:evenodd;clip-rule:evenodd;fill:#FFFFFF;" cx="107.628" cy="70.606" r="1.524"/>
		<circle style="fill-rule:evenodd;clip-rule:evenodd;fill:#FFFFFF;" cx="110.882" cy="70.631" r="1.525"/>
		<circle style="fill-rule:evenodd;clip-rule:evenodd;fill:#FFFFFF;" cx="114.075" cy="69.895" r="1.525"/>
		<circle style="fill-rule:evenodd;clip-rule:evenodd;fill:#FFFFFF;" cx="117.027" cy="68.447" r="1.525"/>
		<circle style="fill-rule:evenodd;clip-rule:evenodd;fill:#FFFFFF;" cx="119.479" cy="66.457" r="1.525"/>
		<circle style="fill-rule:evenodd;clip-rule:evenodd;fill:#FFFFFF;" cx="90.231" cy="43.162" r="1.525"/>
		<circle style="fill-rule:evenodd;clip-rule:evenodd;fill:#FFFFFF;" cx="128.805" cy="43.162" r="1.525"/>
	</g>
	<path style="opacity:0.2;fill-rule:evenodd;clip-rule:evenodd;" d="M109.302,162.395h2.455l1.275,41.982h0.021
		c-1.883,6.355-1.764,9.031,2.891,10.338c1.738,0.486,3.269,2.205,6.168,3.113l0.144,0.044l0.107,0.032l0.05,0.013l0.134,0.038
		h0.003l0.149,0.041l0.007,0.001l0.006,0.001c1.643,0.427,3.85,0.713,5.46,0.276l0.225-0.026c0.726-0.09,1.222-0.516,1.515-1.107
		c0.441-0.678,0.54-1.653,0.103-3.026c-0.405-1.272-1.317-2.436-2.456-3.669l0.004,0.006c-1.597-1.732-3.643-3.596-5.354-6.074
		l-0.018-0.03l2.298-41.951h1.002l1.717-49.413l1.07-19.158l1.571,10.688l-0.005,0.065c-0.061,0.185-0.115,0.376-0.163,0.572
		l-0.546,7.342l-0.215,2.411l0,0l0.035,0.002l-1.034,13.914c-0.065,0.108-0.108,0.232-0.117,0.35l-0.437,5.84
		c-0.029,0.395,0.35,0.591,0.684,0.816l0,0c0.114,0.076,0.238,0.074,0.353,0.022c1.89,3.812,7.062,2.23,7.683-3.61l0.189-2.511
		l-0.096-0.014l1.366-14.169l0.286,0.021l0.724-8.74c0.117-0.766,0.146-1.494,0.104-2.177c0.111-0.31,0.169-0.634,0.161-0.972
		l-0.653-31.072c-0.01-0.456-0.05-0.893-0.115-1.309v-0.004l-0.001,0.001c-0.73-4.632-4.751-6.788-8.155-6.441l0.003-0.054h-10.642
		h-1.964v-3.519c0.866-0.639,1.516-1.474,1.837-2.522c3.457,2.357,6.976-1.717,6.778-3.965c2.652,0.845,4.943-2.347,4.943-5.24
		c0-0.486-0.064-0.957-0.18-1.403c2.051-0.638,3.55-2.647,3.55-5.028c0-1.015-0.272-1.961-0.742-2.764l0.06-0.135
		c0.17-0.396,0.311-0.793,0.421-1.184c1.247-0.951,2.06-2.504,2.06-4.257c0-1.444-0.551-2.751-1.442-3.699
		c1.022-0.96,1.667-2.362,1.667-3.923c0-1.283-0.436-2.459-1.157-3.369c0.587-0.861,0.933-1.92,0.933-3.063
		c0-2.894-2.214-5.241-4.943-5.241c-0.315,0-0.623,0.032-0.92,0.092c0.301-0.678,0.47-1.436,0.47-2.234
		c0-2.894-2.213-5.241-4.942-5.241c-0.811,0-1.575,0.206-2.249,0.572c-0.071-2.829-2.257-5.099-4.941-5.099
		c-1.108,0-2.132,0.387-2.956,1.04C115.242,2.016,113.156,0,110.626,0c-0.459,0-0.902,0.066-1.324,0.191V162.395z"/>
</g>
</svg>